{
	"asset":{
		"generator":"Khronos glTF Blender I/O v3.5.30",
		"version":"2.0"
	},
	"extensionsUsed":[
		"KHR_materials_specular",
		"KHR_materials_ior"
	],
	"scene":0,
	"scenes":[
		{
			"name":"Scene",
			"nodes":[
				0
			]
		}
	],
	"nodes":[
		{
			"mesh":0,
			"name":"thick",
			"rotation":[
				0.7071068286895752,
				0,
				0,
				0.7071068286895752
			],
			"scale":[
				0.05000000074505806,
				0.05000000074505806,
				0.05000000074505806
			]
		}
	],
	"materials":[
		{
			"doubleSided":true,
			"extensions":{
				"KHR_materials_specular":{
					"specularColorFactor":[
						0,
						0,
						0
					]
				},
				"KHR_materials_ior":{
					"ior":1.4500000476837158
				}
			},
			"name":"Material.001",
			"pbrMetallicRoughness":{
				"baseColorFactor":[
					0.800000011920929,
					0.800000011920929,
					0.800000011920929,
					1
				],
				"metallicFactor":0
			}
		},
		{
			"doubleSided":true,
			"extensions":{
				"KHR_materials_specular":{
					"specularColorFactor":[
						0.17785182815030126,
						0.17785182815030126,
						0.17785182815030126
					]
				},
				"KHR_materials_ior":{
					"ior":1.4500000476837158
				}
			},
			"name":"Rib_2X2_468gsm_FRONT_2675",
			"pbrMetallicRoughness":{
				"metallicFactor":0,
				"roughnessFactor":0.8304027318954468
			}
		},
		{
			"doubleSided":true,
			"extensions":{
				"KHR_materials_specular":{
					"specularColorFactor":[
						0.17785182815030126,
						0.17785182815030126,
						0.17785182815030126
					]
				},
				"KHR_materials_ior":{
					"ior":1.4500000476837158
				}
			},
			"name":"Material2873",
			"pbrMetallicRoughness":{
				"baseColorFactor":[
					0.21856200695037842,
					0.21856200695037842,
					0.21856200695037842,
					1
				],
				"metallicFactor":0,
				"roughnessFactor":0.8304027318954468
			}
		}
	],
	"meshes":[
		{
			"name":"thick",
			"primitives":[
				{
					"attributes":{
						"POSITION":0,
						"TEXCOORD_0":1,
						"NORMAL":2
					},
					"indices":3,
					"material":0
				},
				{
					"attributes":{
						"POSITION":4,
						"TEXCOORD_0":5,
						"NORMAL":6
					},
					"indices":7,
					"material":1
				},
				{
					"attributes":{
						"POSITION":8,
						"TEXCOORD_0":9,
						"NORMAL":10
					},
					"indices":11,
					"material":2
				}
			]
		}
	],
	"accessors":[
		{
			"bufferView":0,
			"componentType":5126,
			"count":45944,
			"max":[
				22.32573699951172,
				6.7860331535339355,
				-8.501411437988281
			],
			"min":[
				-21.877233505249023,
				-6.4672417640686035,
				-42.85832595825195
			],
			"type":"VEC3"
		},
		{
			"bufferView":1,
			"componentType":5126,
			"count":45944,
			"type":"VEC2"
		},
		{
			"bufferView":2,
			"componentType":5126,
			"count":45944,
			"type":"VEC3"
		},
		{
			"bufferView":3,
			"componentType":5123,
			"count":249708,
			"type":"SCALAR"
		},
		{
			"bufferView":4,
			"componentType":5126,
			"count":6420,
			"max":[
				23.163864135742188,
				5.911658763885498,
				-6.517634868621826
			],
			"min":[
				-22.702543258666992,
				-5.836437225341797,
				-12.190441131591797
			],
			"type":"VEC3"
		},
		{
			"bufferView":5,
			"componentType":5126,
			"count":6420,
			"type":"VEC2"
		},
		{
			"bufferView":6,
			"componentType":5126,
			"count":6420,
			"type":"VEC3"
		},
		{
			"bufferView":7,
			"componentType":5123,
			"count":33948,
			"type":"SCALAR"
		},
		{
			"bufferView":8,
			"componentType":5126,
			"count":1121268,
			"max":[
				22.10993003845215,
				5.761940002441406,
				-8.672355651855469
			],
			"min":[
				-21.510921478271484,
				-5.789078235626221,
				-42.856815338134766
			],
			"type":"VEC3"
		},
		{
			"bufferView":9,
			"componentType":5126,
			"count":1121268,
			"type":"VEC2"
		},
		{
			"bufferView":10,
			"componentType":5126,
			"count":1121268,
			"type":"VEC3"
		},
		{
			"bufferView":11,
			"componentType":5125,
			"count":5775588,
			"type":"SCALAR"
		}
	],
	"bufferViews":[
		{
			"buffer":0,
			"byteLength":551328,
			"byteOffset":0,
			"target":34962
		},
		{
			"buffer":0,
			"byteLength":367552,
			"byteOffset":551328,
			"target":34962
		},
		{
			"buffer":0,
			"byteLength":551328,
			"byteOffset":918880,
			"target":34962
		},
		{
			"buffer":0,
			"byteLength":499416,
			"byteOffset":1470208,
			"target":34963
		},
		{
			"buffer":0,
			"byteLength":77040,
			"byteOffset":1969624,
			"target":34962
		},
		{
			"buffer":0,
			"byteLength":51360,
			"byteOffset":2046664,
			"target":34962
		},
		{
			"buffer":0,
			"byteLength":77040,
			"byteOffset":2098024,
			"target":34962
		},
		{
			"buffer":0,
			"byteLength":67896,
			"byteOffset":2175064,
			"target":34963
		},
		{
			"buffer":0,
			"byteLength":13455216,
			"byteOffset":2242960,
			"target":34962
		},
		{
			"buffer":0,
			"byteLength":8970144,
			"byteOffset":15698176,
			"target":34962
		},
		{
			"buffer":0,
			"byteLength":13455216,
			"byteOffset":24668320,
			"target":34962
		},
		{
			"buffer":0,
			"byteLength":23102352,
			"byteOffset":38123536,
			"target":34963
		}
	],
	"buffers":[
		{
			"byteLength":61225888,
			"uri":"hoodie%20test%20compress.bin"
		}
	]
}
